<?xml version="1.0" encoding="UTF-8"?>
<svg width="101px" height="14px" viewBox="0 0 101 14" version="1.1" xmlns="http://www.w3.org/2000/svg" xmlns:xlink="http://www.w3.org/1999/xlink">
    <!-- Generator: Sketch 55.1 (78136) - https://sketchapp.com -->
    <title>DONEZU</title>
    <desc>Created with Sketch.</desc>
    <g id="DONEZU" stroke="none" stroke-width="1" fill="none" fill-rule="evenodd">
        <path d="M14.8233752,7.15625 C14.8233752,10.6425242 12.1723234,13.3501381 8.33527473,13.3501381 L3.57384615,13.3501381 L3.57384615,0.962361878 L8.33527473,0.962361878 C12.1723234,0.962361878 14.8233752,3.63458218 14.8233752,7.12085635 L14.8233752,7.15625 Z M12.0153532,7.19164365 L12.0153532,7.15625 C12.0153532,4.96184392 10.5328571,3.4222203 8.33527473,3.4222203 L6.25978022,3.4222203 L6.25978022,10.8902797 L8.33527473,10.8902797 C10.5328571,10.8902797 12.0153532,9.38604972 12.0153532,7.19164365 Z M33.136562,7.15625 C33.136562,10.6779178 30.3983046,13.5625 26.6310204,13.5625 C22.8637363,13.5625 20.1603611,10.7133115 20.1603611,7.19164365 L20.1603611,7.15625 C20.1603611,3.63458218 22.8986185,0.75 26.6659027,0.75 C30.4331868,0.75 33.136562,3.59918854 33.136562,7.12085635 L33.136562,7.15625 Z M30.32854,7.19164365 L30.32854,7.15625 C30.32854,5.03263122 28.7937206,3.2629489 26.6310204,3.2629489 C24.4683203,3.2629489 22.968383,4.99723757 22.968383,7.12085635 L22.968383,7.15625 C22.968383,9.27986878 24.5032025,11.0495511 26.6659027,11.0495511 C28.8286028,11.0495511 30.32854,9.31526243 30.32854,7.19164365 Z M49.862606,13.3501381 L47.5778179,13.3501381 L42.0739421,6.01936761 L41.6652747,6.01936761 L41.6652747,13.3501381 L39.0142229,13.3501381 L39.0142229,0.962361878 L41.4908634,0.962361878 L46.9121174,8.19045716 L47.2115542,8.19045716 L47.2115542,0.962361878 L49.862606,0.962361878 L49.862606,13.3501381 Z M65.5770644,13.3501381 L56.2809419,13.3501381 L56.2809419,0.962361878 L65.4898587,0.962361878 L65.4898587,3.38682666 L58.9494349,3.38682666 L58.9494349,5.93102562 L64.7050078,5.93102562 L64.7050078,8.29299031 L58.9494349,8.29299031 L58.9494349,10.9256733 L65.5770644,10.9256733 L65.5770644,13.3501381 Z M81.2566405,13.3501381 L71.0884615,13.3501381 L71.0884615,11.2796098 L77.8032967,3.35143301 L71.2977551,3.35143301 L71.2977551,0.962361878 L81.2566405,0.962361878 L81.2566405,3.03289019 L74.5418053,10.961067 L81.2566405,10.961067 L81.2566405,13.3501381 Z M97.729959,8.36285158 C97.582629,11.8385483 95.5411944,13.5448032 92.3840816,13.5448032 C89.2030504,13.5448032 87.2203271,11.7959413 87.1047639,8.36285158 L0,8.36285158 L0,5.88529633 L87.0994192,5.88529633 L87.0994192,0.962361878 L89.7853532,0.962361878 L89.7853532,5.88529633 L95.0525746,5.88529633 L95.0525746,0.962361878 L97.7385086,0.962361878 L97.7385086,5.88529633 L101,5.88529633 L101,8.36285158 L97.729959,8.36285158 Z M89.7986484,8.36285158 C89.9215284,10.1230249 90.8893916,11.0318543 92.4189639,11.0318543 C93.9715991,11.0318543 94.9454586,10.1271554 95.0442604,8.36285158 L89.7986484,8.36285158 Z" fill="#BC002D" fill-rule="nonzero"></path>
    </g>
</svg>